<svg id="Layer_1" data-name="Layer 1" xmlns="http://www.w3.org/2000/svg" viewBox="0 0 751.74 75"><defs><style>.cls-1{fill:#231f20;}.cls-2{fill:#010101;}.cls-3{fill:#48ada6;}.cls-4{fill:#e9d362;}.cls-5{fill:#f3785f;}.cls-6{fill:#bc2a66;}</style></defs><title>dealbot_cadence_library</title><path class="cls-1" d="M133,18c10.08,0,18.88,7.21,18.88,20.52S143.11,59,133,59H121.77V18H133Zm-6.1,4.92V54.1h5.22c7.56,0,14.25-4.1,14.25-15.59s-6.68-15.59-14.25-15.59h-5.22Z"/><path class="cls-1" d="M185.44,45.31H163.74c0.29,5.45,3,9.73,8.33,9.73,4.34,0,6.57-2,8.21-5.63l4.34,1.88c-2.76,5.75-6.45,8.21-12.55,8.21-9,0-13.37-7.33-13.37-15.24S163.1,29,172.07,29c8.73,0,13.37,6.68,13.37,14v2.29ZM164,40.86h16.24c-0.88-4.22-3.46-7.39-8.21-7.39C167.5,33.47,164.92,36.58,164,40.86Z"/><path class="cls-1" d="M215.1,59h-3.87l-0.82-4.16a10.71,10.71,0,0,1-9.26,4.63c-4.92,0-9.15-2.64-9.15-9s5.28-9.67,13.37-9.67h4.81V39.57c0-4.57-2.87-6.1-6.45-6.1a5.93,5.93,0,0,0-6.16,4.63l-4.34-1c0.82-5,4.92-8.09,10.49-8.09,6.51,0,11.37,3.28,11.37,11.14V59Zm-13.19-4c3.81,0,8.27-2.35,8.27-9v-0.7H204.9c-5,0-7.86,1.88-7.86,5.22C197,53.34,198.8,55,201.91,55Z"/><path class="cls-1" d="M228.93,17.52V59H224V17.52h4.92Z"/><path class="cls-1" d="M251.91,59.5c-3.58,0-7.21-1.93-8.62-4.1V59h-4.92V17.52h4.92V33c1-1.7,4.87-4,8.62-4C260.59,29,265,35.4,265,44.26S260.59,59.5,251.91,59.5Zm-0.47-26c-5.39,0-8.56,4.46-8.56,10.79S246.05,55,251.45,55c5.22,0,8.56-4.46,8.56-10.79S256.66,33.47,251.45,33.47Z"/><path class="cls-1" d="M285.45,29c8.85,0,14.19,7.21,14.19,15.24S294.3,59.5,285.45,59.5s-14.19-7.21-14.19-15.24S276.59,29,285.45,29Zm0,26c6,0,9.15-5.33,9.15-10.79s-3.11-10.79-9.15-10.79-9.15,5.33-9.15,10.79S279.41,55,285.45,55Z"/><path class="cls-1" d="M304,29.48h5.1V20.63L314,17.52v12h7.74v4.46H314V50.18c0,3.17,1.47,4.87,3.93,4.87a5.56,5.56,0,0,0,3.34-.94l1.17,4.28a9.54,9.54,0,0,1-4.81,1.11c-5,0-8.56-3-8.56-9.73V33.94H304V29.48Z"/><path class="cls-1" d="M369.34,51.35c-2.4,5.51-6.27,8.15-12.37,8.15-9,0-13.42-7.33-13.42-15.24S347.94,29,357,29c6.1,0,10,2.64,12.37,8.15l-4.28,1.76c-1.52-3.58-4-5.45-8.09-5.45-5.75,0-8.38,4.87-8.38,10.79S351.22,55,357,55c4,0,6.57-1.88,8.09-5.45Z"/><path class="cls-1" d="M398.71,59h-3.87L394,54.87a10.71,10.71,0,0,1-9.26,4.63c-4.92,0-9.15-2.64-9.15-9s5.28-9.67,13.37-9.67h4.81V39.57c0-4.57-2.87-6.1-6.45-6.1a5.93,5.93,0,0,0-6.16,4.63l-4.34-1c0.82-5,4.92-8.09,10.49-8.09,6.51,0,11.37,3.28,11.37,11.14V59Zm-13.19-4c3.81,0,8.27-2.35,8.27-9v-0.7h-5.28c-5,0-7.86,1.88-7.86,5.22C380.65,53.34,382.41,55,385.52,55Z"/><path class="cls-1" d="M419.46,29c3.75,0,7.62,2.29,8.62,4V17.52H433V59h-4.92V55.39c-1.41,2.17-5,4.1-8.62,4.1-8.68,0-13.13-6.39-13.13-15.24S410.78,29,419.46,29Zm0.47,26c5.39,0,8.56-4.46,8.56-10.79s-3.17-10.79-8.56-10.79c-5.22,0-8.56,4.46-8.56,10.79S414.71,55,419.93,55Z"/><path class="cls-1" d="M467.53,45.31H445.84c0.29,5.45,3,9.73,8.33,9.73,4.34,0,6.57-2,8.21-5.63l4.34,1.88C464,57,460.26,59.5,454.16,59.5c-9,0-13.37-7.33-13.37-15.24S445.19,29,454.16,29c8.73,0,13.37,6.68,13.37,14v2.29Zm-21.4-4.46h16.24c-0.88-4.22-3.46-7.39-8.21-7.39C449.59,33.47,447,36.58,446.13,40.86Z"/><path class="cls-1" d="M499.36,59h-4.92V39.51c0-4-1.82-6-5.1-6-4.4,0-8.44,5-8.44,13.19V59H476V29.48h4.92v5.45A11,11,0,0,1,490.69,29c5.39,0,8.68,3.34,8.68,9.2V59Z"/><path class="cls-1" d="M532.66,51.35c-2.4,5.51-6.27,8.15-12.37,8.15-9,0-13.42-7.33-13.42-15.24S511.26,29,520.29,29c6.1,0,10,2.64,12.37,8.15l-4.28,1.76c-1.52-3.58-4-5.45-8.09-5.45-5.75,0-8.38,4.87-8.38,10.79S514.55,55,520.29,55c4,0,6.57-1.88,8.09-5.45Z"/><path class="cls-1" d="M565.37,45.31H543.68C544,50.76,546.67,55,552,55c4.34,0,6.57-2,8.21-5.63l4.34,1.88C561.8,57,558.1,59.5,552,59.5c-9,0-13.37-7.33-13.37-15.24S543,29,552,29c8.73,0,13.37,6.68,13.37,14v2.29ZM544,40.86h16.24c-0.88-4.22-3.46-7.39-8.21-7.39C547.43,33.47,544.85,36.58,544,40.86Z"/><path class="cls-1" d="M594.21,17.52V59h-4.92V17.52h4.92Z"/><path class="cls-1" d="M605.53,17.52a3.66,3.66,0,0,1,3.69,3.75,3.69,3.69,0,0,1-7.39,0A3.66,3.66,0,0,1,605.53,17.52Zm2.46,12V59h-4.92V29.48H608Z"/><path class="cls-1" d="M631.21,59.5c-3.58,0-7.21-1.93-8.62-4.1V59h-4.92V17.52h4.92V33c1-1.7,4.87-4,8.62-4,8.68,0,13.13,6.39,13.13,15.24S639.88,59.5,631.21,59.5Zm-0.47-26c-5.39,0-8.56,4.46-8.56,10.79S625.34,55,630.74,55c5.22,0,8.56-4.46,8.56-10.79S636,33.47,630.74,33.47Z"/><path class="cls-1" d="M668.37,34.29a7.71,7.71,0,0,0-3.46-.82c-4,0-8.27,4.75-8.27,14.36V59h-4.92V29.48h4.92v5A10.47,10.47,0,0,1,665.33,29a9.2,9.2,0,0,1,4,.88Z"/><path class="cls-1" d="M696.28,59h-3.87l-0.82-4.16a10.71,10.71,0,0,1-9.26,4.63c-4.92,0-9.15-2.64-9.15-9s5.28-9.67,13.37-9.67h4.81V39.57c0-4.57-2.87-6.1-6.45-6.1a5.93,5.93,0,0,0-6.16,4.63l-4.34-1c0.82-5,4.92-8.09,10.49-8.09,6.51,0,11.37,3.28,11.37,11.14V59Zm-13.19-4c3.81,0,8.27-2.35,8.27-9v-0.7h-5.28c-5,0-7.86,1.88-7.86,5.22C678.22,53.34,680,55,683.09,55Z"/><path class="cls-1" d="M721.25,34.29a7.71,7.71,0,0,0-3.46-.82c-4,0-8.27,4.75-8.27,14.36V59H704.6V29.48h4.92v5A10.48,10.48,0,0,1,718.2,29a9.2,9.2,0,0,1,4,.88Z"/><path class="cls-1" d="M751.74,29.48L737.08,71h-5l4.69-13.19L726.35,29.48h5.39l7.5,21.34,7.33-21.34h5.16Z"/><path class="cls-2" d="M86.84,9.87h-2v-2A7.9,7.9,0,0,0,77,0H59.21A15.78,15.78,0,0,0,47.37,5.36,15.78,15.78,0,0,0,35.53,0H17.76A7.9,7.9,0,0,0,9.87,7.89v2h-2A7.9,7.9,0,0,0,0,17.76V65.13A7.9,7.9,0,0,0,7.89,73H43a5.84,5.84,0,0,0,8.76,0H86.84a7.9,7.9,0,0,0,7.89-7.89V17.76A7.9,7.9,0,0,0,86.84,9.87Z"/><path class="cls-3" d="M17.76,7.89H35.53a7.9,7.9,0,0,1,7.89,7.89V57.74a14.17,14.17,0,0,0-7.89-2.48H17.76V7.89Z"/><path class="cls-4" d="M59.21,7.89H77V55.26H59.21a14.17,14.17,0,0,0-7.89,2.48V15.79A7.9,7.9,0,0,1,59.21,7.89Z"/><path class="cls-5" d="M7.89,17.76h2v37.5a7.9,7.9,0,0,0,7.89,7.89H35.53a7,7,0,0,1,4.59,2H7.89V17.76Z"/><path class="cls-6" d="M86.84,65.13H54.62a7,7,0,0,1,4.59-2H77a7.9,7.9,0,0,0,7.89-7.89V17.76h2V65.13Z"/></svg>